<svg class="prefix__icon" viewBox="0 0 1024 1024" xmlns="http://www.w3.org/2000/svg" width="200" height="200">
    <path
        d="M865.503 882.866v-.89h111.304c20.925 0 38.289-17.364 38.289-39.18s-17.364-39.179-38.289-39.179H8.014v-.89h970.129c21.37 0 38.734 17.809 38.734 39.624s-17.364 39.625-38.734 39.625H865.948v.89z"
        fill="#5F51A0" />
    <path
        d="M978.143 796.494H8.013c-4.006 0-6.677 3.562-6.677 7.123 0 4.007 3.561 7.124 6.678 7.124h969.238c17.809 0 31.61 14.692 31.61 32.5 0 18.255-14.246 32.502-31.61 32.502H865.948c-4.007 0-6.678 2.67-6.678 7.123 0 4.007 3.561 7.124 6.678 7.124h112.195c24.932 0 45.412-20.48 45.412-46.303 0-25.823-20.035-47.193-45.412-47.193z"
        fill="#23267A" />
    <path d="M824.097 882.866v-.89h22.706v.445l-22.706.445z" fill="#5F51A0" />
    <path
        d="M846.803 875.297h-22.706c-4.007 0-6.678 2.672-6.678 7.124s3.562 7.123 6.678 7.123h22.706c4.007 0 7.57-2.671 6.679-7.123.445-4.007-3.562-7.124-6.679-7.124z"
        fill="#23267A" />
    <path d="M795.158 882.866v-.89h11.13v.89h-11.13z" fill="#5F51A0" />
    <path
        d="M806.289 875.297h-11.13c-4.008 0-6.679 2.672-6.679 7.124s3.562 7.123 6.678 7.123h11.13c3.562 0 6.679-2.671 6.679-7.123.445-4.007-3.117-7.124-6.678-7.124z"
        fill="#23267A" />
    <path d="M517.343 882.866v-.89h257.78v.445l-257.78.445z" fill="#5F51A0" />
    <path
        d="M775.569 875.297H517.788c-4.007 0-6.678 2.672-6.678 7.124s3.561 7.123 6.678 7.123h258.671c3.562 0 6.678-2.671 6.233-7.123-.445-4.007-4.007-7.124-7.123-7.124z"
        fill="#23267A" />
    <path
        d="M315.66 962.56c-21.371 0-38.735-17.809-38.735-39.624s17.364-39.625 38.734-39.625h111.304v.89H315.66c-20.925 0-38.289 17.364-38.289 39.18s17.364 39.179 38.29 39.179h379.324v.89H315.66v-.89z"
        fill="#5F51A0" />
    <path
        d="M426.963 876.188H315.66c-24.932 0-45.412 20.48-45.412 46.302 0 25.378 20.035 46.303 45.412 46.303h379.325c3.562 0 6.679-2.671 6.679-7.123 0-4.007-3.562-7.124-6.679-7.124H315.66c-17.809 0-31.61-14.692-31.61-32.5 0-18.255 14.247-32.502 31.61-32.502h111.304c4.007 0 6.679-2.671 6.679-7.123 0-3.562-3.562-6.233-6.679-6.233z"
        fill="#23267A" />
    <path d="M446.108 882.866v-.89h22.706v.445l-22.706.445z" fill="#5F51A0" />
    <path
        d="M468.369 875.297h-22.706c-4.007 0-6.679 2.672-6.679 7.124s3.562 7.123 6.679 7.123h22.706c4.007 0 7.568-2.671 6.678-7.123.445-4.007-2.671-7.124-6.678-7.124z"
        fill="#23267A" />
    <path d="M487.958 882.866v-.89h11.13v.89h-11.13z" fill="#5F51A0" />
    <path
        d="M499.089 875.297h-11.13c-4.008 0-6.679 2.672-6.679 7.124s3.562 7.123 6.678 7.123h11.13c3.562 0 6.679-2.671 6.679-7.123 0-4.007-3.117-7.124-6.678-7.124z"
        fill="#23267A" />
    <path
        d="M271.583 609.503c2.67-119.764 52.535-203.465 152.264-255.11 105.071-54.316 146.922-164.285 163.395-232.849.445 138.018-51.2 231.068-153.6 276.926-57.433 25.377-105.517 78.358-139.799 152.264-9.794 21.816-16.918 41.85-22.26 58.769z"
        fill="#F1E128" />
    <path
        d="M577.002 178.532c-12.466 104.181-61.44 175.861-146.477 213.705-58.768 26.267-108.188 80.139-142.915 155.826-1.78 4.452-4.007 8.459-5.787 12.91 13.801-91.269 61.44-157.606 144.695-200.347 67.673-34.727 119.764-97.948 150.484-182.094M590.358 60.55s-12.02 206.58-170.073 288.5c-147.367 76.133-161.614 211.033-154.49 308.536 0 0 33.836-191.889 170.073-252.438 138.017-62.33 168.737-201.238 154.49-344.598zm-4.897 481.28h13.356v15.582h-13.356zm13.356 241.307h-13.356v-32.946h13.356v32.946zm0-37.843h-13.356v-32.946h13.356v32.946zm0-37.398h-13.356V674.95h13.356v32.946zm0-37.844h-13.356v-32.946h13.356v32.946zm0-37.398h-13.356v-32.946h13.356v32.946zm0-37.844h-13.356v-32.946h13.356v32.946zm-13.356 193.225h13.356v15.582h-13.356z"
        fill="#23267A" />
    <path
        d="M448.334 804.063V515.562h66.783v288.946l-66.783-.445zm33.391-147.813c-10.685 0-19.144 8.46-19.144 19.145v24.932c0 10.685 8.459 19.144 19.144 19.144s19.145-8.459 19.145-19.144v-24.932c0-10.24-8.46-19.145-19.145-19.145zm0-95.276c-10.685 0-19.144 8.459-19.144 19.144v24.932c0 10.686 8.459 19.145 19.144 19.145s19.145-8.46 19.145-19.145v-24.932c0-10.24-8.46-19.144-19.145-19.144z"
        fill="#F1E128" />
    <path
        d="M508.438 522.24v275.59h-53.426V522.24h53.426m-26.713 108.633c14.247 0 25.823-11.576 25.823-25.823v-24.932c0-14.247-11.576-25.822-25.823-25.822s-25.822 11.575-25.822 25.822v24.932c0 14.247 11.575 25.823 25.822 25.823m0 95.277c14.247 0 25.823-11.576 25.823-25.823v-24.932c0-14.247-11.576-25.823-25.823-25.823s-25.822 11.576-25.822 25.823v24.932c0 14.247 11.575 25.823 25.822 25.823m40.07-217.267h-80.14v302.303h80.14V508.883zm-40.07 108.634c-7.123 0-12.466-5.788-12.466-12.467v-24.932c0-7.123 5.788-12.466 12.466-12.466 7.124 0 12.466 5.788 12.466 12.466v24.932c0 7.124-5.342 12.467-12.466 12.467zm0 95.276c-7.123 0-12.466-5.788-12.466-12.466v-24.932c0-7.124 5.788-12.466 12.466-12.466 7.124 0 12.466 5.788 12.466 12.466v24.932c0 7.123-5.342 12.466-12.466 12.466z"
        fill="#8c8fe4" />
    <path
        d="M536.487 597.927c-19.144 0-34.282-15.583-34.282-34.282s15.583-34.282 34.282-34.282 34.282 15.583 34.282 34.282-15.138 34.282-34.282 34.282z"
        fill="#5F51A0" />
    <path
        d="M536.487 536.042c15.137 0 27.603 12.466 27.603 27.603 0 15.138-12.466 27.604-27.603 27.604s-27.604-12.466-27.604-27.604c-.445-15.137 12.467-27.603 27.604-27.603m0-13.357c-22.706 0-40.96 18.254-40.96 40.96s18.254 40.96 40.96 40.96 40.96-18.254 40.96-40.96c.445-22.706-18.254-40.96-40.96-40.96zm-253.774 14.692l-5.343-12.466 28.05-12.02-5.789-43.187c-.445-3.561.446-7.123 2.672-9.794 2.226-2.672 5.342-4.453 8.904-4.898l30.72-2.671 3.116-40.07c.89-7.568 7.57-12.911 15.138-12.02h.445l34.727 7.123 5.788-39.18c.445-3.561 2.671-7.123 5.788-9.349 3.561-2.226 7.568-2.226 11.13-.89l38.734 13.356 3.562-41.405c.89-7.123 6.678-12.02 12.911-12.02l47.193.89-4.897-42.741c-.89-5.788 3.116-11.576 8.904-13.802h.445l32.056-8.46-6.678-42.74 13.356-2.226 6.678 43.186c.89 6.678-3.116 12.911-9.35 14.692l-32.055 8.46 4.898 43.185c.445 3.562-.89 7.124-3.117 9.795-2.671 2.672-6.233 4.452-9.795 4.452l-47.193-.89-3.561 41.85c0 4.007-1.781 7.57-4.898 9.795-3.116 2.226-7.569 3.117-11.575 1.781l-39.18-13.802-5.787 39.625c-.89 3.116-2.672 6.233-5.343 8.014-3.117 2.226-6.678 3.116-10.24 2.226l-34.282-7.124-3.116 40.07c-.89 6.678-5.343 11.13-11.576 12.02l-30.72 2.672 5.788 42.74c.89 5.789-2.226 12.022-7.569 13.803l-28.939 12.02zm131.34-166.066zm.444-.89zm106.407-50.31zm8.014-45.412z"
        fill="#23267A" />
    <path
        d="M588.577 117.537c-16.473 0-30.274-13.356-30.274-30.274 0-16.473 13.356-30.275 30.274-30.275 16.473 0 30.275 13.356 30.275 30.275.445 16.473-12.911 30.274-30.275 30.274z"
        fill="#5F51A0" />
    <path
        d="M588.577 63.666c12.912 0 23.597 10.685 23.597 23.597s-10.685 23.596-23.597 23.596-23.596-10.685-23.596-23.596 11.13-23.597 23.596-23.597m0-13.356c-20.48 0-36.953 16.473-36.953 36.953s16.473 36.953 36.953 36.953 36.953-16.473 36.953-36.953-16.027-36.953-36.953-36.953z"
        fill="#23267A" />
    <path
        d="M265.35 670.943c-16.473 0-30.275-13.357-30.275-30.275 0-16.473 13.356-30.275 30.275-30.275s30.274 13.357 30.274 30.275c0 16.473-13.356 30.275-30.274 30.275z"
        fill="#F19642" />
    <path
        d="M265.35 617.071c12.91 0 23.596 10.686 23.596 23.597s-10.685 23.596-23.596 23.596-23.597-10.685-23.597-23.596 10.685-23.597 23.597-23.597m0-13.356c-20.48 0-36.953 16.473-36.953 36.953s16.473 36.953 36.953 36.953 36.953-16.473 36.953-36.953-16.473-36.953-36.953-36.953z"
        fill="#23267A" />
    <path
        d="M555.186 556.522c-72.57 0-131.784-59.214-131.784-131.785s59.214-131.784 131.784-131.784S686.97 352.167 686.97 424.737s-59.659 131.785-131.784 131.785z"
        fill="#F19642" />
    <path
        d="M555.186 300.077c69.009 0 125.106 56.097 125.106 125.106s-56.097 125.106-125.106 125.106S430.08 494.19 430.08 425.183s56.097-125.106 125.106-125.106m0-13.357c-76.577 0-138.463 61.885-138.463 138.463s61.886 138.462 138.463 138.462S693.65 501.76 693.65 425.183 631.319 286.72 555.186 286.72z"
        fill="#23267A" />
    <path d="M475.047 424.737a80.14 80.14 0 10160.278 0 80.14 80.14 0 10-160.278 0z" fill="#F1E128" />
    <path
        d="M555.186 351.277c40.515 0 73.461 32.946 73.461 73.46s-32.946 73.461-73.46 73.461-73.462-32.946-73.462-73.46 32.946-73.461 73.461-73.461m0-13.357c-48.083 0-86.817 38.734-86.817 86.817s38.734 86.818 86.817 86.818 86.817-38.734 86.817-86.818c0-47.638-39.179-86.817-86.817-86.817z"
        fill="#23267A" />
    <path
        d="M476.828 378.88c-13.802 0-24.932-11.13-24.932-24.932s11.13-24.932 24.932-24.932 24.932 11.13 24.932 24.932-11.13 24.932-24.932 24.932z"
        fill="#F1E128" />
    <path
        d="M476.828 335.694c10.24 0 18.254 8.459 18.254 18.254s-8.46 18.254-18.254 18.254-18.254-8.46-18.254-18.254 8.459-18.254 18.254-18.254m0-13.357c-17.364 0-31.61 14.247-31.61 31.61 0 17.364 14.246 31.611 31.61 31.611s31.61-14.247 31.61-31.61c0-17.364-13.801-31.61-31.61-31.61z"
        fill="#23267A" />
    <path
        d="M450.56 434.087c-13.802 0-24.932-11.13-24.932-24.932s11.13-24.932 24.932-24.932 24.932 11.13 24.932 24.932-10.685 24.932-24.932 24.932z"
        fill="#F1E128" />
    <path
        d="M450.56 390.9c10.24 0 18.254 8.46 18.254 18.255s-8.46 18.254-18.254 18.254c-10.24 0-18.254-8.46-18.254-18.254s8.46-18.254 18.254-18.254m0-13.357c-17.363 0-31.61 14.247-31.61 31.61 0 17.364 14.247 31.611 31.61 31.611s31.61-14.247 31.61-31.61c.446-17.364-13.801-31.61-31.61-31.61z"
        fill="#23267A" />
    <path
        d="M457.683 493.746c-13.801 0-24.932-11.13-24.932-24.932s11.13-24.932 24.932-24.932 24.933 11.13 24.933 24.932-11.13 24.932-24.933 24.932z"
        fill="#F1E128" />
    <path
        d="M457.683 450.115c10.24 0 18.254 8.459 18.254 18.254s-8.459 18.254-18.254 18.254c-10.24 0-18.253-8.46-18.253-18.254s8.013-18.254 18.253-18.254m0-13.357c-17.363 0-31.61 14.247-31.61 31.61 0 17.364 14.247 31.611 31.61 31.611s31.61-14.247 31.61-31.61c0-17.364-14.246-31.61-31.61-31.61z"
        fill="#23267A" />
    <path
        d="M499.534 540.94c-13.802 0-24.932-11.131-24.932-24.933s11.13-24.932 24.932-24.932 24.932 11.13 24.932 24.932-10.685 24.932-24.932 24.932z"
        fill="#F1E128" />
    <path
        d="M499.534 497.753c10.24 0 18.254 8.46 18.254 18.254s-8.46 18.254-18.254 18.254-18.254-8.46-18.254-18.254 8.46-18.254 18.254-18.254m0-13.356c-17.364 0-31.61 14.246-31.61 31.61 0 17.363 14.246 31.61 31.61 31.61s31.61-14.247 31.61-31.61c.446-17.809-13.801-31.61-31.61-31.61z"
        fill="#23267A" />
    <path
        d="M557.412 556.967c-13.802 0-24.932-11.13-24.932-24.932s11.13-24.932 24.932-24.932c13.802 0 24.932 11.13 24.932 24.932s-10.685 24.932-24.932 24.932z"
        fill="#F1E128" />
    <path
        d="M557.412 513.78c10.24 0 18.254 8.46 18.254 18.255s-8.459 18.254-18.254 18.254c-10.24 0-18.254-8.46-18.254-18.254s8.46-18.254 18.254-18.254m0-13.357c-17.363 0-31.61 14.247-31.61 31.61 0 17.364 14.247 31.611 31.61 31.611 17.364 0 31.61-14.247 31.61-31.61s-13.801-31.61-31.61-31.61z"
        fill="#23267A" />
    <path
        d="M616.18 537.377c-13.8 0-24.931-11.13-24.931-24.932s11.13-24.932 24.932-24.932 24.932 11.13 24.932 24.932-10.685 24.932-24.932 24.932z"
        fill="#F1E128" />
    <path
        d="M616.18 494.191c10.24 0 18.255 8.46 18.255 18.254s-8.46 18.254-18.254 18.254c-10.24 0-18.254-8.459-18.254-18.254s8.46-18.254 18.254-18.254m0-13.356c-17.364 0-31.61 14.247-31.61 31.61 0 17.364 14.246 31.61 31.61 31.61s31.61-14.246 31.61-31.61-13.801-31.61-31.61-31.61z"
        fill="#23267A" />
    <path
        d="M655.36 489.294c-13.802 0-24.932-11.13-24.932-24.932s11.13-24.932 24.932-24.932 24.932 11.13 24.932 24.932-11.575 24.932-24.932 24.932z"
        fill="#F1E128" />
    <path
        d="M655.36 445.663c10.24 0 18.254 8.459 18.254 18.254s-8.46 18.253-18.254 18.253c-10.24 0-18.254-8.459-18.254-18.253s8.014-18.254 18.254-18.254m0-13.357c-17.363 0-31.61 14.247-31.61 31.61 0 17.364 14.247 31.611 31.61 31.611s31.61-14.247 31.61-31.61c-.445-17.364-14.247-31.61-31.61-31.61z"
        fill="#23267A" />
    <path
        d="M659.812 426.963c-13.802 0-24.932-11.13-24.932-24.932s11.13-24.932 24.932-24.932 24.932 11.13 24.932 24.932-11.575 24.932-24.932 24.932z"
        fill="#F1E128" />
    <path
        d="M659.812 383.777c10.24 0 18.254 8.46 18.254 18.254s-8.459 18.254-18.254 18.254-18.254-8.459-18.254-18.254 8.014-18.254 18.254-18.254m0-13.356c-17.363 0-31.61 14.247-31.61 31.61 0 17.364 14.247 31.61 31.61 31.61s31.61-14.246 31.61-31.61c-.445-17.363-14.246-31.61-31.61-31.61z"
        fill="#23267A" />
    <path
        d="M631.763 374.873c-13.801 0-24.932-11.13-24.932-24.932s11.13-24.932 24.932-24.932 24.933 11.13 24.933 24.932-11.576 24.932-24.933 24.932z"
        fill="#F1E128" />
    <path
        d="M631.763 331.242c10.24 0 18.254 8.459 18.254 18.254s-8.459 18.254-18.254 18.254c-10.24 0-18.253-8.46-18.253-18.254s8.013-18.254 18.253-18.254m0-13.357c-17.363 0-31.61 14.247-31.61 31.61s14.247 31.611 31.61 31.611c17.364 0 31.61-14.247 31.61-31.61s-13.8-31.61-31.61-31.61z"
        fill="#23267A" />
    <path
        d="M581.454 345.934c-13.802 0-24.932-11.13-24.932-24.932s11.13-24.932 24.932-24.932c13.802 0 24.932 11.13 24.932 24.932s-11.13 24.932-24.932 24.932z"
        fill="#F1E128" />
    <path
        d="M581.454 302.303c10.24 0 18.254 8.459 18.254 18.254s-8.46 18.253-18.254 18.253c-10.24 0-18.254-8.459-18.254-18.253s8.46-18.254 18.254-18.254m0-13.357c-17.364 0-31.61 14.247-31.61 31.61 0 17.364 14.246 31.611 31.61 31.611 17.363 0 31.61-14.247 31.61-31.61.446-17.364-13.801-31.61-31.61-31.61z"
        fill="#23267A" />
    <path
        d="M524.02 347.27c-13.8 0-24.931-11.13-24.931-24.933s11.13-24.932 24.932-24.932 24.932 11.13 24.932 24.932-11.13 24.933-24.932 24.933z"
        fill="#F1E128" />
    <path
        d="M524.02 304.083c10.24 0 18.255 8.46 18.255 18.254s-8.46 18.254-18.254 18.254c-10.24 0-18.254-8.459-18.254-18.254s8.014-18.254 18.254-18.254m0-13.356c-17.364 0-31.61 14.247-31.61 31.61 0 17.364 14.246 31.61 31.61 31.61s31.61-14.246 31.61-31.61-14.247-31.61-31.61-31.61z"
        fill="#23267A" />
    <path d="M497.308 424.737a57.433 57.433 0 10114.866 0 57.433 57.433 0 10-114.866 0z" fill="#F19642" />
    <path
        d="M554.74 374.428c28.05 0 50.756 22.706 50.756 50.755 0 28.048-22.706 50.754-50.755 50.754s-50.755-22.706-50.755-50.754c0-28.05 23.151-50.755 50.755-50.755m0-13.357c-35.172 0-64.111 28.494-64.111 64.112 0 35.172 28.493 64.11 64.11 64.11 35.173 0 64.112-28.493 64.112-64.11s-29.384-64.112-64.111-64.112z"
        fill="#23267A" />
    <path
        d="M588.577 458.129c-1.335 0-3.116-.446-4.007-1.336l-36.507-28.94v-43.185c0-3.562 3.116-6.678 6.678-6.678s6.678 3.116 6.678 6.678v36.953l31.165 24.487c3.117 2.226 3.562 6.678.89 9.35-.89 1.78-2.67 2.67-4.897 2.67z"
        fill="#23267A" />
    <path
        d="M555.186 427.409c-2.226 0-4.452-1.781-4.452-4.452s1.78-4.453 4.452-4.453 4.452 1.781 4.452 4.453-2.226 4.452-4.452 4.452z"
        fill="#F19642" />
    <path
        d="M555.186 412.271c-6.233 0-11.13 4.898-11.13 11.13s4.897 11.131 11.13 11.131 11.13-4.897 11.13-11.13-5.342-11.13-11.13-11.13z"
        fill="#23267A" />
    <path
        d="M401.586 484.842c-16.473 0-29.384-13.357-29.384-29.385 0-16.473 13.356-29.384 29.384-29.384s29.384 13.357 29.384 29.384c.446 16.028-12.91 29.385-29.384 29.385z"
        fill="#5F51A0" />
    <path
        d="M401.586 432.306c12.466 0 22.706 10.24 22.706 22.706s-10.24 22.706-22.706 22.706-22.706-10.24-22.706-22.706 10.24-22.706 22.706-22.706m0-13.356c-20.035 0-36.063 16.027-36.063 36.062s16.028 36.063 36.063 36.063 36.063-16.028 36.063-36.063-16.028-36.062-36.063-36.062z"
        fill="#23267A" />
    <path d="M404.257 518.678a54.317 54.317 0 10108.633 0 54.317 54.317 0 10-108.633 0z" fill="#F19642" />
    <path
        d="M458.574 471.04c26.268 0 47.638 21.37 47.638 47.638s-21.37 47.639-47.638 47.639-47.638-21.37-47.638-47.639 21.37-47.638 47.638-47.638m0-13.357c-33.837 0-60.995 27.159-60.995 60.995s27.604 60.995 60.995 60.995c33.836 0 60.995-27.158 60.995-60.995s-27.159-60.995-60.995-60.995z"
        fill="#23267A" />
    <path
        d="M567.652 631.763c-4.897 0-9.35-4.006-9.35-9.35s4.008-9.349 9.35-9.349h52.536c4.897 0 9.35 4.007 9.35 9.35s-4.008 9.35-9.35 9.35h-52.536z"
        fill="#F19642" />
    <path
        d="M619.743 619.743c1.335 0 2.67 1.335 2.67 2.67s-1.335 2.672-2.67 2.672h-52.536c-1.336 0-2.671-1.335-2.671-2.671s1.335-2.671 2.671-2.671h52.536m0-13.357h-52.536c-8.904 0-16.028 7.124-16.028 16.028s7.124 16.028 16.028 16.028h52.536c8.904 0 16.027-7.124 16.027-16.028s-7.123-16.028-16.027-16.028z"
        fill="#23267A" />
    <path d="M334.358 804.063c12.466-49.42 57.433-84.592 109.079-84.592s96.166 35.172 109.078 84.592H334.358z"
        fill="#F1E128" />
    <path
        d="M443.437 726.15c45.857 0 85.481 28.939 100.173 71.234H343.263c14.692-42.295 53.87-71.234 100.174-71.234m0-13.357c-58.324 0-107.298 42.296-117.093 97.948h234.63c-10.24-55.652-59.214-97.948-117.537-97.948z"
        fill="#23267A" />
    <path d="M377.1 803.617c11.13-26.267 37.397-44.076 66.337-44.076s55.206 17.809 66.337 44.076H377.099z"
        fill="#F19642" />
    <path
        d="M443.437 766.22c22.706 0 43.63 12.02 55.206 30.72H387.784c12.021-18.7 32.946-30.72 55.653-30.72m0-13.357c-36.063 0-66.338 24.487-75.687 57.433h151.819c-9.795-32.946-40.07-57.433-76.132-57.433zM357.064 502.205c-4.897 0-9.794 1.781-13.356 5.788v1.336c-.445 1.78-.89 3.561-.89 5.788l13.356-.446c0-.89 0-2.671 1.78-4.007l.446-.445c1.336-1.336 3.117-1.78 4.007-1.78v-6.234h-5.343zm-5.787 21.37l-12.912 3.562c0 .446 0 .89.445 1.336.89 1.78 1.781 3.117 3.117 4.452l15.137 15.138 9.35-9.35-15.137-15.137c.445 1.78 0 .89 0 0zm19.144 20.48l-9.35 9.35 11.576 11.576 10.685 10.685 9.35-9.35-22.261-22.26zm25.377 25.378l-9.35 9.35 13.357 13.356 8.46 8.46 9.349-9.35-21.816-21.816zm25.378 24.932l-9.35 9.35 21.816 21.815 9.35-9.35-21.816-21.815zm24.932 25.378l-9.35 9.35 21.816 21.815 9.35-9.35-21.816-21.815zm25.377 24.932l-9.35 9.35 3.562 3.561.446.445 17.363 17.364 9.35-9.35-21.37-21.37zm24.932 25.377l-9.35 9.35 7.57 7.568 14.692 14.693 9.35-9.35-22.262-22.26zm25.378 24.932l-9.35 9.35.89.89 20.926 20.926 9.35-9.35-21.816-21.816zm25.377 25.378l-9.35 9.35 15.138 15.137 6.678 6.678 9.35-9.35-21.816-21.815zm24.487 25.377l-9.35 9.35 7.57 7.568c3.561 3.562 8.458 5.788 13.356 5.788 1.335 0 3.116-.445 4.452-.89l-4.007-12.912c-.445 0-1.336.446-1.78.446-.891 0-2.672 0-4.008-1.781l-6.233-7.569zm28.494-7.569l-11.13 7.124c1.335 2.226.89 5.343-.89 7.123l-.446.446c-.445.445-.89.445-1.336.89l6.679 11.576c.89-.446 1.78-.89 2.226-1.781l.445-.445c1.78-1.781 2.671-4.007 3.562-6.233v-.89c2.67-12.912 2.226-15.583.89-17.81zm-24.932-25.377l-9.35 9.35 21.816 21.815 9.35-9.35-21.816-21.815zm-24.932-25.377l-9.35 9.35 21.816 21.815 9.35-9.35-8.905-8.904-12.911-12.911zm-25.378-24.933l-9.35 9.35 21.816 21.816 9.35-9.35-6.233-6.233-15.583-15.583zm-25.377-25.377l-9.35 9.35L512 668.27l9.35-9.35-12.021-12.02-9.795-9.795zm-24.932-24.932l-9.35 9.35 21.816 21.815 9.35-9.35-21.816-21.815zm-24.932-25.377l-9.35 9.35 21.816 21.815 9.35-9.35-12.467-12.466c-4.897-4.452-9.35-9.35-9.35-9.35zm-25.823-24.933l-9.35 9.35 21.816 21.816 9.35-9.35-21.816-21.816zm-24.932-25.377l-9.35 9.35 21.816 21.815 9.35-9.35-3.562-3.561-18.254-18.254zm-24.932-25.377l-9.35 9.35 21.816 21.815 9.35-9.35-21.816-21.815zm-16.919-8.905v13.357c.89 0 2.672 0 4.007 1.78l9.35-9.349c-3.562-3.562-8.904-5.788-13.357-5.788z"
        fill="#23267A" />
    <path
        d="M356.62 535.151c-7.124 0-12.467-5.788-12.467-12.466 0-7.123 5.788-12.466 12.466-12.466 7.124 0 12.466 5.788 12.466 12.466 0 6.678-5.342 12.466-12.466 12.466z"
        fill="#F19642" />
    <path
        d="M356.62 516.452c3.116 0 5.787 2.671 5.787 5.788s-2.671 5.788-5.788 5.788-5.788-2.671-5.788-5.788 2.672-5.788 5.788-5.788m0-13.356c-10.685 0-19.144 8.459-19.144 19.144s8.459 19.144 19.144 19.144 19.144-8.459 19.144-19.144-8.459-19.144-19.144-19.144zM101.955 220.828H71.68c-3.562 0-6.678-3.117-6.678-6.678s3.116-6.679 6.678-6.679h30.72c3.562 0 6.678 3.117 6.678 6.679s-3.116 6.678-7.123 6.678z"
        fill="#23267A" />
    <path
        d="M86.817 235.965c-3.561 0-6.678-3.116-6.678-6.678v-30.72c0-3.562 3.117-6.678 6.678-6.678s6.679 3.116 6.679 6.678v30.72c0 3.562-3.117 6.678-6.679 6.678zM255.11 141.134h-30.72c-3.562 0-6.679-3.117-6.679-6.678s3.117-6.679 6.679-6.679h30.72c3.561 0 6.678 3.117 6.678 6.679s-3.117 6.678-6.678 6.678z"
        fill="#23267A" />
    <path
        d="M239.972 156.271c-3.562 0-6.678-3.116-6.678-6.678v-30.72c0-3.562 3.116-6.678 6.678-6.678s6.678 3.116 6.678 6.678v30.72c0 4.007-3.116 6.678-6.678 6.678zM960.78 410.49h-30.72c-3.563 0-6.68-3.116-6.68-6.678s3.117-6.678 6.68-6.678h30.72c3.56 0 6.677 3.116 6.677 6.678s-3.116 6.678-6.678 6.678z"
        fill="#23267A" />
    <path
        d="M945.642 426.073c-3.562 0-6.679-3.116-6.679-6.678v-30.72c0-3.562 3.117-6.678 6.679-6.678s6.678 3.116 6.678 6.678v30.72c0 3.562-3.117 6.678-6.678 6.678zM971.464 242.643H827.66c-3.562 0-6.678-3.116-6.678-6.678s3.116-6.678 6.678-6.678h143.805c3.562 0 6.679 3.116 6.679 6.678s-3.562 6.678-6.679 6.678zM1015.986 242.643H993.28c-3.562 0-6.678-3.116-6.678-6.678s3.116-6.678 6.678-6.678h22.706c3.562 0 6.678 3.116 6.678 6.678s-2.226 6.678-6.678 6.678zM151.374 141.134H7.569c-3.562 0-6.679-3.117-6.679-6.678s3.117-6.679 6.679-6.679h143.805c3.562 0 6.678 3.117 6.678 6.679s-3.116 6.678-6.678 6.678zM196.786 141.134H174.08c-3.562 0-6.678-3.117-6.678-6.678s3.116-6.679 6.678-6.679h22.706c3.562 0 6.678 3.117 6.678 6.679s-3.116 6.678-6.678 6.678z"
        fill="#23267A" />
</svg>